<?xml version="1.0" standalone="no"?>
<!DOCTYPE svg PUBLIC "-//W3C//DTD SVG 20010904//EN"
 "http://www.w3.org/TR/2001/REC-SVG-20010904/DTD/svg10.dtd">
<svg version="1.0" xmlns="http://www.w3.org/2000/svg"
 width="19800.000000pt" height="5016.000000pt" viewBox="0 0 19800.000000 5016.000000"
 preserveAspectRatio="xMidYMid meet">

<g transform="translate(0.000000,5016.000000) scale(0.100000,-0.100000)"
fill="#000000" stroke="none">
<path d="M22850 33623 c-424 -25 -682 -64 -985 -149 -258 -72 -457 -149 -708
-275 -828 -415 -1462 -1052 -1891 -1899 -288 -569 -432 -1094 -476 -1738 -25
-375 5 -797 85 -1187 124 -602 413 -1235 800 -1750 516 -686 1230 -1199 2038
-1464 864 -284 1842 -250 2661 91 572 238 1151 651 1578 1123 l108 120 0 1548
0 1547 -1145 0 -1145 0 0 -575 0 -575 535 0 535 0 0 -754 0 -754 -82 -77
c-104 -96 -270 -221 -418 -315 -139 -87 -399 -216 -533 -265 -623 -224 -1344
-198 -1952 72 -552 244 -1011 652 -1334 1185 -281 463 -440 959 -481 1498 -75
993 276 1958 960 2640 368 367 814 623 1296 745 215 54 348 68 624 69 250 0
312 -5 490 -40 505 -100 1006 -375 1435 -787 50 -48 92 -87 95 -86 3 0 109
134 237 297 127 163 291 373 364 466 l133 169 -40 35 c-430 377 -1002 711
-1517 888 -154 53 -404 115 -572 143 -178 30 -578 61 -695 54z"/>
<path d="M131270 33619 c-599 -38 -1018 -138 -1500 -359 -970 -444 -1715
-1221 -2152 -2245 -278 -650 -392 -1367 -333 -2089 49 -598 191 -1093 471
-1646 478 -943 1251 -1653 2219 -2038 749 -298 1600 -353 2388 -156 754 190
1531 677 2110 1325 l77 86 0 1547 0 1546 -1145 0 -1145 0 0 -575 0 -575 535 0
535 0 0 -754 0 -754 -62 -57 c-301 -279 -697 -512 -1078 -634 -553 -177 -1206
-152 -1762 70 -962 383 -1673 1300 -1863 2404 -35 204 -40 276 -40 580 0 332
10 441 64 710 90 446 304 923 585 1303 455 615 1095 1024 1797 1146 308 54
707 44 997 -25 482 -115 960 -383 1338 -751 61 -59 113 -108 117 -108 3 0 171
210 373 467 l366 467 -33 28 c-347 295 -682 517 -1044 692 -471 228 -872 341
-1351 380 -263 21 -326 23 -464 15z"/>
<path d="M29600 29300 l0 -4210 625 0 625 0 0 1815 0 1815 739 0 738 0 75
-102 c41 -57 198 -272 348 -478 270 -371 1039 -1426 1400 -1920 102 -140 330
-452 505 -692 l319 -438 778 0 779 0 -199 263 c-109 144 -315 417 -459 607
-143 190 -412 545 -597 790 -461 610 -946 1252 -1284 1699 -155 206 -279 378
-275 381 5 4 37 16 73 28 111 34 271 101 380 159 455 241 819 616 1041 1070
367 750 308 1649 -154 2343 -389 586 -1027 977 -1737 1066 -95 12 -416 14
-1917 14 l-1803 0 0 -4210z m3662 3087 c244 -60 435 -165 598 -327 184 -184
318 -443 361 -699 18 -101 15 -350 -5 -453 -50 -260 -176 -498 -358 -673 -184
-178 -402 -289 -643 -329 -74 -12 -293 -16 -1227 -22 l-1138 -7 0 1267 0 1267
1173 -4 c1050 -3 1179 -5 1239 -20z"/>
<path d="M42411 33488 c-10 -27 -92 -224 -231 -558 -56 -135 -139 -335 -185
-445 -101 -243 -304 -730 -350 -840 -18 -44 -140 -336 -270 -650 -130 -313
-258 -622 -285 -685 -26 -63 -128 -306 -225 -540 -97 -234 -191 -461 -210
-505 -18 -44 -140 -336 -270 -650 -130 -313 -259 -622 -285 -685 -26 -63 -128
-306 -225 -540 -97 -234 -191 -461 -210 -505 -18 -44 -140 -336 -270 -650
-238 -573 -276 -665 -400 -960 -37 -88 -70 -166 -72 -172 -4 -10 135 -13 673
-13 l679 1 77 187 c42 103 144 349 226 547 144 347 211 508 549 1325 85 206
174 420 198 475 l42 100 1735 3 c1381 2 1737 -1 1745 -10 5 -7 175 -409 378
-893 202 -484 391 -936 420 -1005 29 -69 99 -235 155 -370 56 -135 114 -271
127 -302 l26 -58 668 0 c368 0 669 2 669 5 0 2 -34 87 -76 187 -42 101 -125
300 -184 443 -59 143 -148 357 -197 475 -200 478 -602 1446 -793 1905 -59 143
-153 368 -208 500 -55 132 -218 524 -362 870 -144 347 -284 682 -310 745 -53
126 -140 334 -175 420 -12 30 -95 231 -185 445 -89 215 -256 617 -372 895
-115 278 -227 546 -248 595 -40 97 -120 287 -283 680 l-104 250 -687 3 -686 2
-9 -22z m851 -1943 c66 -159 174 -420 240 -580 161 -389 310 -749 458 -1105
68 -162 133 -320 145 -350 26 -63 225 -546 249 -602 l16 -38 -1265 0 c-1202 0
-1265 1 -1256 18 5 9 118 278 251 597 133 319 282 675 330 790 169 405 423
1013 547 1310 69 165 128 304 130 309 7 10 -2 28 155 -349z"/>
<path d="M50230 29300 l0 -4210 645 0 645 0 2 3230 3 3230 355 -487 c195 -269
476 -654 624 -858 148 -203 671 -921 1161 -1595 490 -674 1064 -1461 1274
-1750 210 -289 586 -805 834 -1147 l452 -622 633 -1 632 0 0 4210 0 4210 -625
0 -625 0 -1 -3247 c0 -2843 -2 -3245 -15 -3227 -15 22 -187 260 -549 759 -127
176 -375 518 -550 760 -175 242 -382 528 -460 635 -134 185 -580 801 -1183
1635 -151 209 -292 403 -312 430 -21 28 -133 183 -250 345 -240 332 -566 782
-905 1250 -126 173 -284 393 -353 488 l-124 172 -654 0 -654 0 0 -4210z"/>
<path d="M60970 29300 l0 -4211 1828 4 c1817 3 1828 3 1957 24 343 57 584 133
858 272 417 209 766 489 1074 859 494 597 836 1399 957 2247 46 321 51 404 51
805 0 417 -7 520 -61 880 -142 956 -557 1812 -1153 2381 -513 491 -1177 810
-1886 909 -284 39 -328 40 -2002 40 l-1623 0 0 -4210z m3119 3090 c567 -35
994 -195 1381 -518 626 -524 969 -1432 970 -2570 0 -830 -178 -1530 -521
-2044 -324 -486 -827 -833 -1380 -952 -280 -60 -296 -61 -1352 -61 l-967 0 0
3073 c0 1689 0 3074 0 3077 0 9 1705 5 1869 -5z"/>
<path d="M71100 29300 l0 -4210 625 0 625 0 2 3227 3 3226 174 -239 c96 -131
198 -270 226 -309 49 -66 116 -157 515 -705 90 -124 230 -315 310 -425 81
-110 263 -360 405 -555 142 -195 325 -445 405 -555 80 -110 209 -286 286 -392
l139 -192 485 0 485 -1 372 513 c204 281 494 681 644 887 149 206 468 645 708
975 239 330 502 692 583 803 l148 204 0 -3231 0 -3231 620 0 620 0 0 4210 0
4210 -627 0 -628 0 -226 -313 c-124 -171 -398 -550 -609 -842 -211 -291 -485
-669 -608 -840 -124 -170 -282 -389 -352 -485 -70 -96 -259 -357 -420 -580
-161 -223 -319 -441 -351 -485 -32 -44 -125 -172 -207 -285 -82 -113 -152
-205 -157 -205 -5 0 -669 908 -1475 2017 l-1465 2017 -627 0 -628 1 0 -4210z"/>
<path d="M85882 33463 c-11 -27 -93 -223 -182 -438 -89 -214 -184 -442 -210
-505 -45 -106 -180 -431 -732 -1760 -115 -278 -232 -557 -258 -620 -120 -287
-154 -369 -175 -420 -13 -30 -57 -136 -98 -235 -145 -349 -296 -712 -372 -895
-42 -102 -98 -237 -125 -300 -45 -107 -208 -499 -730 -1755 -116 -280 -234
-562 -260 -625 -129 -309 -304 -730 -321 -772 l-19 -48 678 0 677 0 21 53 c12
28 130 315 264 637 133 322 291 702 350 845 226 548 419 1012 439 1058 l20 47
1740 0 1739 0 27 -67 c15 -38 55 -135 90 -218 35 -82 185 -442 335 -800 327
-781 410 -979 590 -1407 l62 -148 669 0 c368 0 669 2 669 5 0 5 -260 633 -359
870 -21 50 -121 288 -221 530 -100 242 -195 469 -210 505 -15 36 -155 371
-310 745 -156 374 -334 804 -397 955 -64 151 -152 365 -198 475 -127 307 -232
558 -285 685 -51 122 -378 907 -730 1755 -116 281 -232 557 -256 615 -24 58
-153 368 -287 690 l-244 585 -685 3 -685 2 -21 -47z m873 -1948 c86 -209 195
-470 240 -580 86 -205 140 -336 408 -985 85 -206 217 -523 292 -705 75 -181
141 -340 146 -352 l9 -23 -1264 0 -1264 0 60 143 c33 78 89 212 125 297 36 85
80 191 98 235 19 44 111 265 205 490 94 226 186 446 205 490 18 44 51 123 73
175 22 52 115 275 207 495 92 220 189 453 216 517 27 65 56 134 64 154 8 21
17 35 19 33 2 -2 74 -175 161 -384z"/>
<path d="M98280 32955 l0 -555 1140 0 1140 0 0 -3655 0 -3655 620 0 620 0 0
3655 0 3655 1148 0 1147 0 -3 555 -2 555 -2905 0 -2905 0 0 -555z"/>
<path d="M110006 33197 c-135 -324 -288 -694 -456 -1097 -54 -129 -148 -356
-210 -505 -62 -148 -146 -351 -187 -450 -41 -99 -85 -205 -98 -235 -19 -47
-180 -434 -522 -1255 -41 -99 -124 -297 -183 -440 -59 -143 -149 -359 -199
-480 -51 -121 -214 -512 -363 -870 -148 -357 -292 -702 -318 -765 -26 -63
-127 -306 -225 -540 -97 -234 -191 -461 -210 -505 -118 -280 -388 -933 -392
-948 -5 -16 30 -17 672 -15 l677 3 68 165 c37 91 123 298 190 460 68 162 133
320 145 350 12 30 77 188 145 350 67 162 171 412 230 555 59 143 151 366 205
495 53 129 99 241 102 248 4 10 359 12 1746 10 l1740 -3 44 -105 c24 -58 70
-168 102 -245 33 -77 99 -237 149 -355 49 -118 131 -314 182 -435 91 -217 165
-394 280 -670 237 -566 340 -809 348 -817 4 -4 308 -7 674 -6 l665 3 -128 310
c-71 171 -149 357 -173 415 -24 58 -151 362 -281 675 -130 314 -252 606 -270
650 -57 135 -212 506 -325 780 -59 143 -176 424 -260 625 -83 201 -217 523
-297 715 -160 385 -250 600 -323 775 -26 63 -144 345 -260 625 -479 1153 -685
1647 -734 1765 -29 69 -142 340 -251 603 l-199 477 -685 0 -686 -1 -129 -312z
m840 -1334 c16 -39 146 -352 411 -993 85 -206 204 -492 263 -635 59 -143 155
-375 213 -515 58 -140 157 -379 220 -530 63 -151 117 -285 121 -297 l7 -23
-1261 0 c-1006 0 -1261 3 -1257 13 3 6 23 55 45 107 22 52 115 275 207 495 92
220 207 495 255 610 312 746 582 1393 642 1535 38 91 79 189 90 218 11 28 22
52 24 52 2 0 11 -17 20 -37z"/>
<path d="M117983 30643 c3 -3123 -1 -2888 57 -3184 89 -463 316 -944 626
-1334 583 -732 1459 -1155 2389 -1155 621 0 1199 178 1715 528 675 458 1159
1193 1309 1987 53 277 51 166 51 3203 l0 2822 -620 0 -620 0 0 -2737 c0 -1795
-4 -2778 -10 -2853 -36 -393 -183 -761 -430 -1069 -251 -313 -591 -540 -954
-635 -167 -44 -231 -51 -451 -50 -186 1 -224 4 -330 26 -749 161 -1311 752
-1472 1548 -16 79 -17 288 -20 2928 l-3 2842 -620 0 -620 0 3 -2867z"/>
<path d="M138070 29300 l0 -4210 620 0 620 0 0 1930 0 1930 2360 0 2360 0 0
-1930 0 -1930 620 0 620 0 0 4210 0 4210 -620 0 -620 0 0 -1705 0 -1705 -2357
2 -2358 3 -3 1703 -2 1702 -620 0 -620 0 0 -4210z"/>
<path d="M148130 32955 l0 -555 1140 0 1140 0 0 -3655 0 -3655 620 0 620 0 0
3655 0 3655 1145 0 1145 0 0 555 0 555 -2905 0 -2905 0 0 -555z"/>
<path d="M162240 29300 l0 -4210 625 0 625 0 0 3225 c0 1774 3 3225 8 3225 4
0 13 -10 21 -22 8 -13 86 -122 174 -243 89 -121 350 -479 581 -795 230 -316
524 -719 653 -895 128 -176 274 -376 324 -445 106 -145 471 -645 609 -834 l95
-131 486 -3 485 -2 539 742 c297 409 726 1000 954 1313 227 314 536 738 685
943 l271 374 3 -3226 2 -3226 620 0 620 0 0 4210 0 4210 -627 0 -628 -1 -80
-112 c-68 -96 -627 -868 -1195 -1652 -91 -126 -321 -444 -510 -705 -189 -261
-463 -639 -609 -840 -145 -201 -323 -447 -395 -547 -72 -100 -134 -182 -138
-183 -3 0 -667 909 -1475 2020 l-1468 2020 -627 0 -628 0 0 -4210z"/>
<path d="M174070 29300 l0 -4210 2575 0 2575 0 0 575 0 575 -1952 2 -1953 3
-3 1353 -2 1352 1740 0 1740 0 0 575 0 575 -1737 2 -1738 3 0 1145 0 1145
1953 3 1952 2 0 555 0 555 -2575 0 -2575 0 0 -4210z"/>
<path d="M43212 18609 c-637 -53 -1117 -423 -1296 -999 -61 -198 -71 -268 -71
-515 0 -189 3 -236 23 -332 155 -767 777 -1238 1582 -1198 408 20 695 101 958
270 l72 47 0 609 0 609 -497 -2 -498 -3 0 -178 0 -179 33 -29 32 -29 210 0
210 0 0 -274 0 -275 -82 -31 c-181 -70 -342 -95 -548 -87 -151 6 -248 27 -369
80 -355 153 -561 518 -561 992 0 673 409 1086 1041 1052 222 -12 368 -56 574
-173 134 -76 164 -83 225 -52 39 20 57 42 137 168 l93 145 -38 33 c-68 59
-226 161 -322 206 -182 86 -345 128 -566 146 -141 11 -192 11 -342 -1z"/>
<path d="M68854 18609 c-492 -44 -906 -292 -1144 -685 -63 -104 -100 -186
-143 -321 -47 -146 -67 -269 -74 -449 -30 -796 395 -1403 1088 -1555 258 -56
575 -46 829 28 107 31 245 96 341 160 80 55 206 167 240 214 l21 30 -75 82
c-181 198 -168 187 -219 187 -38 0 -54 -6 -90 -35 -140 -112 -251 -171 -383
-201 -62 -15 -120 -19 -260 -19 -210 0 -278 15 -426 91 -168 87 -289 214 -379
399 -58 118 -86 212 -105 355 -43 314 14 618 160 846 44 68 149 181 215 229
74 54 206 115 309 142 84 23 117 26 261 27 230 1 350 -31 522 -136 144 -88
169 -100 208 -93 53 10 71 28 180 180 l101 140 -57 52 c-114 105 -304 214
-464 267 -193 63 -421 86 -656 65z"/>
<path d="M80729 18610 c-230 -26 -425 -113 -576 -253 -110 -103 -177 -211
-229 -367 -26 -79 -28 -97 -28 -245 -1 -137 3 -171 22 -239 51 -177 149 -313
295 -410 125 -82 235 -126 562 -226 273 -83 397 -156 456 -270 21 -40 24 -58
24 -160 0 -105 -2 -120 -28 -175 -38 -81 -70 -120 -130 -160 -76 -50 -164 -75
-281 -82 -212 -12 -353 33 -589 189 -92 61 -116 72 -160 76 -81 6 -106 -17
-210 -190 l-88 -147 43 -41 c63 -60 222 -164 319 -209 196 -90 390 -133 609
-135 168 -1 257 11 385 51 346 109 569 356 647 718 19 90 16 325 -5 405 -37
141 -127 280 -235 365 -120 96 -235 149 -579 266 -263 89 -374 140 -444 206
-69 65 -94 120 -93 213 0 112 24 172 98 246 88 88 193 124 361 124 154 0 264
-34 445 -138 113 -66 142 -75 190 -62 51 14 67 35 151 198 l74 143 -40 35
c-145 125 -358 222 -571 258 -114 20 -298 27 -395 16z"/>
<path d="M94710 18614 c-323 -28 -596 -127 -826 -300 -97 -73 -237 -222 -305
-324 -121 -181 -200 -385 -239 -615 -20 -115 -22 -154 -17 -335 4 -169 10
-224 30 -315 105 -463 382 -822 778 -1009 440 -209 995 -204 1424 11 131 66
228 135 334 237 174 169 295 362 370 593 63 193 76 285 76 538 0 242 -10 316
-66 500 -166 542 -610 918 -1184 1004 -79 12 -307 21 -375 15z m391 -507 c346
-89 579 -361 650 -757 18 -101 18 -422 0 -520 -53 -296 -201 -529 -415 -659
-296 -178 -749 -171 -1037 18 -269 177 -409 485 -409 901 0 337 86 590 264
778 137 144 291 224 500 258 122 20 327 11 447 -19z"/>
<path d="M147635 18609 c-610 -62 -1078 -426 -1264 -984 -63 -189 -75 -276
-75 -535 0 -207 3 -248 23 -340 68 -317 194 -555 405 -765 122 -122 219 -191
371 -265 495 -242 1146 -202 1588 99 322 219 535 562 608 977 28 165 29 422 0
586 -42 237 -145 486 -275 659 -268 356 -670 555 -1156 573 -74 2 -175 0 -225
-5z m436 -502 c212 -55 384 -176 496 -350 126 -194 181 -430 170 -732 -16
-440 -184 -738 -501 -890 -239 -114 -564 -124 -816 -24 -359 144 -560 494
-560 979 0 575 282 957 765 1036 121 20 326 11 446 -19z"/>
<path d="M45850 17090 l0 -1490 275 0 275 0 0 580 0 580 158 0 c228 0 208 14
407 -288 576 -873 535 -814 594 -844 l53 -28 279 0 c154 0 279 3 279 6 0 3
-173 262 -385 574 -298 440 -399 581 -446 624 -33 31 -64 56 -70 56 -25 0 -4
18 34 30 23 7 74 28 112 47 246 124 397 307 466 564 32 117 32 336 0 454 -77
290 -283 479 -622 570 -183 49 -274 55 -865 55 l-544 0 0 -1490z m1163 1032
c234 -64 347 -207 347 -442 0 -205 -94 -363 -264 -445 -114 -55 -180 -65 -453
-72 l-243 -6 0 498 0 497 268 -4 c231 -4 277 -8 345 -26z"/>
<path d="M49360 17090 l0 -1490 945 0 945 0 0 220 0 220 -660 0 -660 0 0 420
0 420 518 2 517 3 3 213 2 212 -520 0 -520 0 0 415 0 415 660 0 660 0 0 220 0
220 -945 0 -945 0 0 -1490z"/>
<path d="M53431 18558 c-20 -51 -1153 -2934 -1158 -2945 -8 -19 465 -18 510 1
55 23 91 75 137 202 24 65 76 207 115 314 l72 195 619 0 618 0 117 -318 c122
-334 138 -364 206 -393 25 -11 91 -14 273 -14 132 0 240 1 240 3 0 1 -263 670
-583 1487 l-584 1485 -287 3 -286 2 -9 -22z m582 -1325 l184 -503 -468 0
c-258 0 -469 4 -469 8 0 5 85 240 189 523 176 480 231 638 261 749 l12 45 53
-160 c29 -88 136 -386 238 -662z"/>
<path d="M55762 18353 l3 -228 453 -3 452 -2 0 -1260 0 -1260 275 0 275 0 0
1260 0 1260 450 0 450 0 0 230 0 230 -1180 0 -1180 0 2 -227z"/>
<path d="M60950 17091 l0 -1491 280 0 280 0 0 580 0 580 148 0 c170 0 206 -8
249 -52 17 -18 176 -253 353 -523 177 -269 336 -505 353 -522 57 -60 81 -64
390 -61 l278 3 -377 555 c-207 305 -392 574 -410 597 -19 23 -55 57 -79 74
-44 32 -56 49 -34 49 26 0 167 67 236 112 180 118 290 261 359 468 26 80 28
95 28 260 1 194 -9 246 -69 376 -89 195 -260 331 -515 412 -202 64 -216 65
-872 69 l-598 4 0 -1490z m1173 1031 c99 -27 168 -64 225 -122 111 -111 149
-310 92 -492 -50 -161 -174 -268 -369 -319 -62 -17 -122 -21 -318 -26 l-243
-6 0 498 0 497 268 -4 c232 -4 277 -8 345 -26z"/>
<path d="M64470 17090 l0 -1490 940 0 940 0 0 220 0 220 -660 0 -660 0 0 420
0 420 520 0 520 0 0 215 0 215 -520 0 -520 0 0 415 0 415 660 0 660 0 0 220 0
220 -940 0 -940 0 0 -1490z"/>
<path d="M71330 17090 l0 -1490 280 0 280 0 0 1490 0 1490 -280 0 -280 0 0
-1490z"/>
<path d="M73410 17091 l0 -1491 280 0 280 0 0 520 0 520 188 0 c473 1 696 40
920 160 206 111 345 280 415 505 38 121 51 229 44 379 -11 254 -87 445 -240
597 -131 132 -300 215 -545 271 -93 21 -123 22 -719 25 l-623 4 0 -1490z
m1146 1044 c277 -48 424 -225 424 -510 0 -215 -89 -384 -247 -468 -109 -58
-181 -69 -485 -74 l-278 -5 0 536 0 536 249 0 c178 0 274 -4 337 -15z"/>
<path d="M76800 17090 l0 -1490 945 0 945 0 0 220 0 220 -660 0 -660 0 0 420
0 420 518 2 517 3 3 213 2 212 -520 0 -520 0 0 415 0 415 660 0 660 0 0 220 0
220 -945 0 -945 0 0 -1490z"/>
<path d="M89530 17090 l0 -1490 280 0 280 0 0 650 0 650 695 0 695 0 0 -650 0
-650 285 0 285 0 0 1490 0 1490 -285 0 -285 0 0 -640 0 -640 -695 0 -695 0 0
640 0 640 -280 0 -280 0 0 -1490z"/>
<path d="M97610 17090 l0 -1490 245 0 245 0 -2 1079 c-2 823 0 1075 9 1058
202 -387 912 -1690 931 -1711 46 -49 96 -66 197 -66 101 0 151 17 196 66 15
16 228 407 474 869 246 462 450 843 453 847 4 4 4 -48 0 -115 -3 -67 -7 -551
-7 -1074 l-1 -953 250 0 250 0 0 1490 0 1491 -270 -3 -270 -3 -29 -30 c-38
-38 -938 -1722 -999 -1868 -25 -59 -48 -104 -52 -100 -4 4 -24 50 -45 101 -53
130 -969 1830 -1006 1867 l-29 30 -270 3 -270 3 0 -1491z"/>
<path d="M102280 17090 l0 -1490 945 0 945 0 0 220 0 220 -665 0 -665 0 0 420
0 420 520 0 520 0 0 215 0 215 -520 0 -520 0 0 415 0 415 665 0 665 0 0 220 0
220 -945 0 -945 0 0 -1490z"/>
<path d="M105470 17090 l0 -1490 250 0 251 0 -3 1074 c-3 928 -1 1071 11 1048
148 -284 908 -1683 923 -1699 43 -46 97 -63 196 -63 106 0 145 12 191 62 27
27 218 380 924 1705 9 17 11 -227 9 -1053 l-3 -1074 246 0 245 0 0 1490 0
1490 -259 0 c-251 0 -259 -1 -291 -22 -28 -19 -113 -171 -506 -908 -260 -486
-490 -927 -510 -978 -21 -51 -41 -95 -45 -97 -3 -2 -25 42 -48 98 -63 153
-982 1857 -1015 1882 -26 19 -45 20 -297 23 l-269 3 0 -1491z"/>
<path d="M110448 17107 c-318 -809 -580 -1480 -584 -1489 -6 -17 10 -18 236
-18 269 0 287 3 338 66 17 21 67 144 142 348 l115 316 616 0 c578 0 617 -1
624 -17 4 -10 56 -152 116 -316 60 -164 118 -311 130 -326 11 -16 38 -38 59
-50 37 -20 49 -21 283 -19 l244 3 -517 1315 c-284 723 -547 1393 -584 1488
l-67 172 -287 0 -287 0 -577 -1473z m1141 154 c106 -288 190 -525 188 -527 -2
-2 -213 -3 -469 -2 l-465 3 196 535 c108 294 211 585 229 645 19 61 36 117 38
125 3 8 25 -46 48 -120 24 -74 129 -371 235 -659z"/>
<path d="M113910 17090 l0 -1490 653 0 c529 0 671 3 752 15 481 73 860 333
1069 735 196 377 230 849 91 1267 -71 213 -178 387 -335 543 -199 200 -444
328 -747 392 -105 22 -126 23 -795 26 l-688 3 0 -1491z m1385 1021 c52 -12
132 -42 190 -70 180 -89 288 -198 381 -386 97 -198 137 -439 115 -695 -16
-177 -49 -301 -115 -435 -90 -182 -195 -291 -367 -380 -171 -88 -284 -105
-716 -105 l-313 0 0 1051 0 1051 368 -5 c328 -4 377 -7 457 -26z"/>
<path d="M117820 17090 l0 -1490 945 0 945 0 0 220 0 220 -660 0 -660 0 0 420
0 420 518 2 517 3 3 213 2 212 -520 0 -520 0 0 415 0 415 660 0 660 0 0 220 0
220 -945 0 -945 0 0 -1490z"/>
<path d="M127230 18574 c0 -3 201 -652 446 -1442 245 -791 453 -1458 460
-1484 l15 -48 254 0 c140 0 255 2 255 4 0 2 149 465 330 1028 182 562 341
1057 353 1098 l21 74 13 -44 c7 -25 165 -521 350 -1103 l338 -1057 254 2 254
3 458 1475 c252 811 459 1481 459 1488 0 16 -464 17 -507 1 -36 -13 -89 -64
-102 -98 -16 -41 -510 -1785 -531 -1875 -10 -45 -24 -108 -31 -141 l-12 -60
-27 105 c-45 169 -639 1983 -659 2010 -10 14 -35 35 -57 47 -35 20 -53 23
-177 23 -222 0 -236 -12 -325 -282 -323 -975 -559 -1702 -582 -1793 -15 -60
-30 -103 -33 -95 -3 8 -14 60 -25 115 -18 87 -524 1888 -550 1955 -13 32 -59
76 -95 89 -30 11 -547 16 -547 5z"/>
<path d="M132720 17090 l0 -1490 280 0 280 0 0 1490 0 1490 -280 0 -280 0 0
-1490z"/>
<path d="M134530 18350 l0 -230 450 0 450 0 0 -1260 0 -1260 280 0 280 0 0
1260 0 1260 448 2 447 3 3 228 2 227 -1180 0 -1180 0 0 -230z"/>
<path d="M138070 17090 l0 -1490 280 0 280 0 0 650 0 650 700 0 700 0 0 -650
0 -650 280 0 280 0 0 1490 0 1490 -280 0 -280 0 0 -640 0 -640 -700 0 -700 0
0 640 0 640 -280 0 -280 0 0 -1490z"/>
<path d="M143650 17090 l0 -1490 875 0 875 0 0 230 0 230 -595 0 -595 0 0
1260 0 1260 -280 0 -280 0 0 -1490z"/>
<path d="M150180 18573 c0 -5 269 -675 597 -1490 l598 -1482 255 -1 255 0 598
1483 c328 815 597 1485 597 1490 0 11 -485 9 -517 -4 -34 -12 -80 -55 -98 -89
-7 -14 -178 -454 -379 -978 -342 -889 -404 -1063 -436 -1217 l-12 -60 -34 120
c-18 66 -46 158 -62 205 -57 165 -741 1930 -758 1955 -9 14 -36 37 -59 50 -41
25 -44 25 -293 25 -139 0 -252 -3 -252 -7z"/>
<path d="M154230 17090 l0 -1490 940 0 940 0 0 220 0 220 -660 0 -660 0 0 420
0 420 520 0 520 0 0 215 0 215 -520 0 -520 0 0 415 0 415 660 0 660 0 0 220 0
220 -940 0 -940 0 0 -1490z"/>
</g>
</svg>
